<svg xmlns="http://www.w3.org/2000/svg" viewBox="0 0 24 24" width="32" height="32">
    <defs>
        <linearGradient id="officekit-grad" x1="0%" y1="0%" x2="100%" y2="100%">
            <stop offset="0%" stop-color="#0078d4" />
            <stop offset="100%" stop-color="#8764b8" />
        </linearGradient>
    </defs>
    <circle cx="12" cy="12" r="11" fill="url(#officekit-grad)" />
    <path d="M12 5.5C8.41 5.5 5.5 8.41 5.5 12s2.91 6.5 6.5 6.5 6.5-2.91 6.5-6.5-2.91-6.5-6.5-6.5zm-0.65 11.65c-2.57-.32-4.55-2.5-4.55-5.15 0-.4.05-.79.14-1.16L10.05 13.9v.65c0 .71.58 1.3 1.3 1.3v1.3zm4.48-1.65c-.17-.53-.65-.9-1.23-.9h-.65v-1.95c0-.36-.29-.65-.65-.65h-3.25v-1.3h1.3c.36 0 .65-.29.65-.65V8.75h1.3c.73 0 1.3-.57 1.3-1.3v-.27c1.9 1.07 3.25 3.09 3.25 5.42 0 1.35-.52 2.58-1.37 3.5z" fill="#ffffff" />
</svg>
